<?xml version="1.0" standalone="no"?>
<!DOCTYPE svg PUBLIC "-//W3C//DTD SVG 20010904//EN"
 "http://www.w3.org/TR/2001/REC-SVG-20010904/DTD/svg10.dtd">
<svg version="1.0" xmlns="http://www.w3.org/2000/svg"
 width="576.000000pt" height="576.000000pt" viewBox="0 0 576.000000 576.000000"
 preserveAspectRatio="xMidYMid meet">
<metadata>
Created by potrace 1.14, written by Peter Selinger 2001-2017
</metadata>
<g transform="translate(0.000000,576.000000) scale(0.100000,-0.100000)"
fill="#000000" stroke="none">
<path d="M1960 5423 c-25 -8 -53 -16 -62 -18 -28 -6 -121 -70 -161 -111 -47
-47 -102 -139 -117 -194 -6 -23 -13 -67 -16 -98 -3 -31 -6 -62 -8 -68 -2 -6
-1 -16 3 -23 5 -7 5 -30 1 -52 -4 -22 -4 -41 0 -44 4 -2 4 -25 0 -50 -4 -25
-4 -45 -1 -45 5 0 6 -101 1 -120 -1 -3 -1 -45 0 -95 1 -49 1 -103 0 -120 -4
-94 -4 -145 0 -145 3 0 4 -28 2 -62 -1 -35 -2 -78 -2 -95 1 -35 1 -43 0 -108
0 -22 1 -89 4 -150 6 -181 62 -310 186 -435 133 -133 297 -196 489 -190 25 0
48 3 53 6 4 3 8 2 8 -3 0 -4 30 -7 67 -6 38 1 109 2 158 2 50 1 115 1 145 2
30 1 62 1 70 0 8 -1 31 -1 50 0 19 1 42 1 50 0 37 -2 125 1 131 5 4 2 10 0 13
-4 3 -5 26 -6 50 -2 25 4 50 4 55 0 6 -3 38 -3 71 0 33 3 65 3 71 -1 6 -3 28
-3 49 1 21 4 43 4 49 1 6 -4 38 -4 71 -1 34 3 64 2 66 -2 3 -5 9 -6 13 -3 5 2
37 7 71 10 74 6 163 35 245 78 69 37 200 164 230 223 11 21 23 41 26 44 21 15
60 171 65 254 3 50 7 97 9 104 3 6 1 12 -4 12 -4 0 -5 23 -1 50 4 28 4 50 0
50 -3 0 -5 15 -3 33 7 66 8 327 1 327 -3 0 -4 8 -2 18 9 31 9 302 1 302 -5 0
-6 4 -2 9 12 20 5 308 -9 366 -35 142 -142 268 -275 324 -82 35 -80 34 -343
38 l-248 4 -1 -28 c-1 -15 0 -32 1 -38 1 -5 1 -39 0 -75 -1 -36 -2 -69 -2 -75
0 -5 1 -59 1 -120 0 -104 0 -128 2 -157 0 -7 0 -62 0 -123 0 -60 0 -117 1
-125 2 -30 -13 -122 -22 -141 -31 -57 -105 -83 -230 -79 -25 1 -51 1 -57 1 -7
-1 -19 -1 -25 -2 -13 0 -127 0 -163 1 -11 0 -42 -1 -70 -1 -55 -1 -59 -1 -95
5 -14 2 -30 4 -36 5 -6 0 -27 15 -47 32 -43 37 -61 88 -57 169 2 53 2 73 0
223 -1 37 2 72 5 77 3 6 2 10 -3 10 -6 0 -7 14 -2 34 4 19 6 37 3 40 -3 2 -4
37 -3 78 1 84 1 138 0 226 l-2 63 -236 -2 c-174 -1 -249 -5 -282 -16z"/>
<path d="M707 2883 c-2 -2 -37 -4 -78 -5 -41 -1 -87 -5 -104 -10 -16 -4 -43
-11 -60 -13 -63 -11 -191 -83 -258 -147 -66 -63 -126 -142 -127 -165 0 -7 -4
-13 -9 -13 -4 0 -21 -39 -37 -87 l-29 -88 0 -740 c0 -407 3 -756 6 -775 22
-118 85 -235 175 -326 60 -61 168 -138 189 -135 3 1 19 -5 35 -14 82 -43 122
-44 1043 -44 539 0 887 3 903 9 14 6 39 12 57 15 64 11 192 83 260 147 66 63
126 142 127 166 0 6 4 12 9 12 11 0 60 155 65 210 3 25 5 45 6 45 1 0 2 26 3
58 1 31 0 57 -3 57 -3 0 -4 26 -3 57 1 32 2 58 3 58 0 0 2 78 3 173 1 94 -1
172 -4 172 -3 0 -2 23 1 51 4 29 4 68 0 88 -3 20 -3 50 1 68 3 17 3 37 -1 43
-4 6 -4 29 0 50 4 21 4 43 1 49 -4 5 -4 41 -1 80 3 39 3 71 -1 71 -3 0 -3 23
1 50 4 28 4 50 1 50 -3 0 -5 50 -5 112 1 135 -13 205 -67 316 -57 118 -164
225 -284 282 -47 23 -93 43 -103 45 -9 2 -17 4 -17 5 0 3 -39 7 -125 15 -41 3
-81 8 -87 10 -7 3 -13 1 -13 -4 0 -4 -20 -5 -45 -1 -24 4 -50 3 -57 -1 -6 -4
-16 -5 -21 -2 -4 2 -43 4 -85 3 -42 -1 -89 -1 -103 -1 -26 1 -27 0 -29 -66 -1
-38 -1 -74 -1 -80 3 -42 3 -265 1 -323 -1 -25 -2 -52 -2 -60 7 -145 1 -300
-12 -332 -25 -59 -78 -93 -149 -95 -32 -1 -61 -3 -63 -6 -3 -2 -21 -1 -42 2
-20 4 -54 4 -75 0 -21 -3 -40 -3 -42 1 -2 4 -25 4 -50 0 -25 -4 -45 -4 -45 0
0 3 -22 4 -50 0 -27 -4 -50 -4 -50 -1 0 3 -27 6 -59 6 -48 1 -65 6 -95 28 -20
15 -40 36 -46 46 -15 29 -26 121 -20 176 3 28 3 66 0 85 -3 19 -3 50 1 68 4
18 3 32 -3 32 -5 0 -6 5 -3 10 4 6 6 74 5 153 -1 78 -2 147 -2 152 4 207 5
199 -48 205 -25 3 -56 3 -70 -1 -14 -3 -36 -3 -50 1 -14 3 -38 3 -55 0 -16 -3
-47 -3 -67 1 -21 3 -39 5 -41 2z"/>
<path d="M3607 2883 c-1 -1 -47 -4 -102 -7 -55 -3 -107 -7 -115 -9 -103 -26
-178 -59 -237 -104 -31 -23 -32 -25 -19 -51 12 -24 43 -118 53 -162 11 -48 17
-296 7 -311 -2 -4 -1 -10 4 -13 4 -2 5 -32 2 -66 -3 -33 -3 -65 1 -71 3 -6 3
-28 -1 -49 -4 -21 -4 -43 -1 -49 4 -6 4 -38 1 -71 -3 -33 -3 -65 0 -71 4 -5 4
-30 0 -55 -4 -24 -3 -47 2 -50 4 -3 6 -9 4 -13 -3 -4 -5 -34 -5 -67 -1 -32 -1
-75 -2 -94 -1 -19 -1 -42 0 -50 0 -8 0 -40 0 -70 -1 -30 -1 -62 0 -70 1 -21 0
-173 -2 -253 -1 -37 1 -67 4 -67 3 0 3 -21 0 -47 -4 -27 -4 -69 -1 -95 3 -27
3 -48 0 -48 -3 0 -6 -46 -7 -103 -1 -58 -8 -126 -17 -157 -9 -30 -18 -62 -20
-70 -2 -8 -9 -28 -15 -43 -6 -16 -11 -33 -11 -38 0 -26 173 -109 261 -126 54
-10 1822 -11 1865 -1 51 13 106 34 174 69 73 38 203 162 235 225 11 21 23 41
26 44 4 3 20 41 35 85 l29 80 2 735 c3 824 4 810 -68 958 -57 118 -165 225
-284 282 -47 23 -93 43 -103 45 -9 2 -17 4 -17 5 0 7 -221 23 -275 20 -19 -1
-41 -2 -47 -1 -16 1 -36 2 -98 2 -27 0 -54 0 -60 0 -5 0 -27 -1 -48 -2 -36 -2
-38 -4 -37 -38 0 -20 0 -44 0 -53 0 -10 0 -24 1 -30 1 -25 0 -324 -1 -408 -1
-47 -1 -91 -1 -97 1 -7 1 -19 2 -25 0 -7 0 -55 -2 -106 -2 -85 -5 -97 -31
-133 -41 -57 -84 -72 -205 -70 -10 1 -43 0 -73 0 -30 -1 -62 -1 -70 0 -8 1
-31 1 -50 0 -19 -1 -41 -1 -47 0 -20 2 -39 2 -95 2 -29 0 -64 1 -78 3 -14 2
-32 4 -41 5 -30 2 -89 62 -99 102 -12 44 -15 142 -5 158 3 6 1 11 -5 11 -6 0
-8 4 -5 10 3 5 6 40 5 77 -1 115 -1 165 0 241 1 41 0 76 -3 78 -3 3 -1 21 3
40 4 18 5 34 1 34 -4 0 -5 21 -2 48 3 26 5 71 3 99 -3 47 -6 53 -25 53 -12 -1
-48 0 -80 0 -33 0 -63 -2 -68 -6 -5 -3 -9 -2 -9 3 0 6 -127 12 -133 6z"/>
</g>
</svg>
